<svg width="20" height="28" viewBox="0 0 20 28" fill="none" xmlns="http://www.w3.org/2000/svg">
<path d="M10 8.38135e-08C7.79877 -0.00028483 5.65896 0.725833 3.9125 2.06572C2.16604 3.40561 0.910551 5.28437 0.340772 7.41058C-0.229007 9.53679 -0.0812231 11.7916 0.761199 13.8253C1.60362 15.8589 3.09359 17.5577 5 18.6582V24C5 24.2652 5.10535 24.5196 5.29289 24.7071C5.48043 24.8946 5.73478 25 6 25H7C7 25.7956 7.31607 26.5587 7.87868 27.1213C8.44129 27.6839 9.20435 28 10 28C10.7956 28 11.5587 27.6839 12.1213 27.1213C12.6839 26.5587 13 25.7956 13 25H14C14.2652 25 14.5196 24.8946 14.7071 24.7071C14.8946 24.5196 15 24.2652 15 24V18.6582C16.9064 17.5577 18.3964 15.8589 19.2388 13.8253C20.0812 11.7916 20.229 9.53679 19.6592 7.41058C19.0894 5.28437 17.834 3.40561 16.0875 2.06572C14.341 0.725833 12.2012 -0.00028483 10 8.38135e-08ZM10 26C9.73489 25.9997 9.48073 25.8942 9.29327 25.7067C9.10581 25.5193 9.00034 25.2651 9 25H11C10.9997 25.2651 10.8942 25.5193 10.7067 25.7067C10.5193 25.8942 10.2651 25.9997 10 26ZM7 23V22H13V23H7ZM13.5552 17.1646C13.3884 17.2473 13.2481 17.375 13.15 17.5332C13.0519 17.6914 12.9999 17.8738 13 18.06V20H11V18.4141L12.707 16.707C12.8892 16.5184 12.99 16.2658 12.9877 16.0036C12.9854 15.7414 12.8802 15.4906 12.6948 15.3052C12.5094 15.1198 12.2586 15.0146 11.9964 15.0123C11.7342 15.01 11.4816 15.1108 11.293 15.293L10 16.5859L8.707 15.293C8.5184 15.1108 8.26579 15.01 8.0036 15.0123C7.7414 15.0146 7.49059 15.1198 7.30518 15.3052C7.11977 15.4906 7.0146 15.7414 7.01232 16.0036C7.01005 16.2658 7.11084 16.5184 7.293 16.707L9 18.4141V20H7V18.06C7.00008 17.8738 6.94814 17.6913 6.85004 17.5331C6.75194 17.3749 6.61158 17.2472 6.4448 17.1645C4.8284 16.3627 3.53053 15.038 2.76192 13.4056C1.99332 11.7731 1.79914 9.92882 2.2109 8.1721C2.62267 6.41538 3.6162 4.84944 5.03016 3.72859C6.44412 2.60773 8.19547 1.99777 9.9998 1.99777C11.8041 1.99777 13.5555 2.60773 14.9694 3.72859C16.3834 4.84944 17.3769 6.41538 17.7887 8.1721C18.2005 9.92882 18.0063 11.7731 17.2377 13.4056C16.4691 15.038 15.1716 16.3628 13.5552 17.1646Z" fill="black"/>
<path d="M10 4C8.40924 4.00175 6.88413 4.63445 5.75929 5.75929C4.63445 6.88413 4.00175 8.40924 4 10C4 10.2652 4.10536 10.5196 4.29289 10.7071C4.48043 10.8946 4.73478 11 5 11C5.26522 11 5.51957 10.8946 5.70711 10.7071C5.89464 10.5196 6 10.2652 6 10C6.00119 8.9395 6.423 7.92278 7.17289 7.17289C7.92278 6.423 8.9395 6.00119 10 6C10.2652 6 10.5196 5.89464 10.7071 5.70711C10.8946 5.51957 11 5.26522 11 5C11 4.73478 10.8946 4.48043 10.7071 4.29289C10.5196 4.10536 10.2652 4 10 4Z" fill="black"/>
</svg>
