<svg width="26" height="32" viewBox="0 0 26 32" fill="none" xmlns="http://www.w3.org/2000/svg">
<path d="M19 30H15.4671C18.8939 26.5482 26 18.7039 26 13C26 9.55219 24.6304 6.24558 22.1924 3.80761C19.7544 1.36964 16.4478 0 13 0C9.55219 0 6.24558 1.36964 3.80761 3.80761C1.36964 6.24558 0 9.55219 0 13C0 18.7039 7.1061 26.5482 10.5329 30H7C6.73478 30 6.48043 30.1054 6.29289 30.2929C6.10536 30.4804 6 30.7348 6 31C6 31.2652 6.10536 31.5196 6.29289 31.7071C6.48043 31.8946 6.73478 32 7 32H19C19.2652 32 19.5196 31.8946 19.7071 31.7071C19.8946 31.5196 20 31.2652 20 31C20 30.7348 19.8946 30.4804 19.7071 30.2929C19.5196 30.1054 19.2652 30 19 30ZM13 2C15.9164 2.00331 18.7123 3.1633 20.7745 5.22548C22.8367 7.28766 23.9967 10.0836 24 13C24 18.5625 15.4805 27.2188 12.9961 29.624C9.3887 26.166 2 18.0391 2 13C2.00331 10.0836 3.1633 7.28766 5.22548 5.22548C7.28766 3.1633 10.0836 2.00331 13 2Z" fill="#27272B"/>
<path d="M20 13C20 11.6155 19.5895 10.2622 18.8203 9.11101C18.0511 7.95986 16.9579 7.06266 15.6788 6.53284C14.3997 6.00303 12.9922 5.86441 11.6344 6.1345C10.2765 6.4046 9.02922 7.07128 8.05026 8.05025C7.07129 9.02922 6.4046 10.2765 6.13451 11.6344C5.86441 12.9922 6.00303 14.3997 6.53285 15.6788C7.06266 16.9579 7.95987 18.0511 9.11101 18.8203C10.2622 19.5895 11.6155 20 13 20C14.8558 19.9977 16.635 19.2595 17.9473 17.9473C19.2595 16.635 19.9978 14.8558 20 13ZM8 13C8 12.0111 8.29325 11.0444 8.84266 10.2221C9.39206 9.3999 10.173 8.75904 11.0866 8.3806C12.0002 8.00216 13.0056 7.90315 13.9755 8.09607C14.9454 8.289 15.8363 8.7652 16.5355 9.46447C17.2348 10.1637 17.711 11.0546 17.9039 12.0245C18.0969 12.9945 17.9978 13.9998 17.6194 14.9134C17.241 15.827 16.6001 16.6079 15.7779 17.1573C14.9556 17.7068 13.9889 18 13 18C11.6744 17.9984 10.4035 17.4712 9.46619 16.5338C8.52885 15.5965 8.00156 14.3256 8 13Z" fill="#27272B"/>
</svg>
