<svg width="23" height="27" viewBox="0 0 23 27" fill="none" xmlns="http://www.w3.org/2000/svg">
<path d="M21.48 5.66001L11.48 0.130008C11.3279 0.0422392 11.1555 -0.00396729 10.98 -0.00396729C10.8044 -0.00396729 10.632 0.0422392 10.48 0.130008L0.479962 5.66001C0.329589 5.75147 0.206019 5.88101 0.121738 6.03552C0.0374571 6.19004 -0.00454924 6.36406 -3.75389e-05 6.54001V19.46C-0.00052855 19.6399 0.0475155 19.8166 0.139032 19.9715C0.230549 20.1263 0.362148 20.2537 0.519962 20.34L10.52 25.88C10.672 25.9678 10.8444 26.014 11.02 26.014C11.1955 26.014 11.3679 25.9678 11.52 25.88L21.52 20.34C21.6778 20.2537 21.8094 20.1263 21.9009 19.9715C21.9924 19.8166 22.0405 19.6399 22.04 19.46V6.54001C22.0366 6.356 21.9826 6.17648 21.8838 6.02121C21.785 5.86594 21.6452 5.74095 21.48 5.66001ZM20 18.87L11 23.87L1.99996 18.87V7.13001L11 2.13001L20 7.13001V18.87ZM5.99996 13C5.99996 13.9889 6.29321 14.9556 6.84261 15.7779C7.39202 16.6001 8.17292 17.241 9.08655 17.6194C10.0002 17.9978 11.0055 18.0969 11.9754 17.9039C12.9453 17.711 13.8362 17.2348 14.5355 16.5355C15.2348 15.8363 15.711 14.9454 15.9039 13.9755C16.0968 13.0056 15.9978 12.0002 15.6194 11.0866C15.2409 10.173 14.6001 9.39207 13.7778 8.84266C12.9556 8.29325 11.9889 8.00001 11 8.00001C9.67388 8.00001 8.40211 8.52679 7.46443 9.46447C6.52675 10.4022 5.99996 11.6739 5.99996 13ZM14 13C14 13.5934 13.824 14.1734 13.4944 14.6667C13.1647 15.1601 12.6962 15.5446 12.148 15.7716C11.5998 15.9987 10.9966 16.0581 10.4147 15.9424C9.83275 15.8266 9.2982 15.5409 8.87864 15.1213C8.45908 14.7018 8.17336 14.1672 8.05761 13.5853C7.94185 13.0033 8.00126 12.4001 8.22832 11.852C8.45539 11.3038 8.8399 10.8352 9.33325 10.5056C9.8266 10.176 10.4066 10 11 10C11.7956 10 12.5587 10.3161 13.1213 10.8787C13.6839 11.4413 14 12.2044 14 13Z" fill="black"/>
</svg>
