<svg width="28" height="29" viewBox="0 0 28 29" fill="none" xmlns="http://www.w3.org/2000/svg">
<path d="M16 6.14318H12C11.8296 6.14266 11.6621 6.09858 11.5134 6.01512C11.3648 5.93165 11.24 5.81158 11.1508 5.6663C11.0616 5.52102 11.0111 5.35535 11.0039 5.18504C10.9968 5.01472 11.0333 4.84541 11.11 4.69318L13.11 0.693179C13.1939 0.529377 13.3214 0.391912 13.4785 0.295922C13.6355 0.199931 13.816 0.149139 14 0.149139C14.1841 0.149139 14.3645 0.199931 14.5216 0.295922C14.6786 0.391912 14.8061 0.529377 14.89 0.693179L16.89 4.69318C16.9667 4.84541 17.0033 5.01472 16.9961 5.18504C16.989 5.35535 16.9384 5.52102 16.8493 5.6663C16.7601 5.81158 16.6353 5.93165 16.4866 6.01512C16.338 6.09858 16.1705 6.14266 16 6.14318ZM13.62 4.14318H14.38L14 3.38318L13.62 4.14318Z" fill="black"/>
<path d="M6.22 10.1932L6 10.1432C5.8347 10.1048 5.68188 10.025 5.55592 9.91132C5.42996 9.79761 5.33501 9.65371 5.28 9.49318L3.86 5.26318C3.80304 5.08779 3.79568 4.90007 3.83874 4.72077C3.8818 4.54146 3.9736 4.37756 4.10399 4.24716C4.23438 4.11677 4.39829 4.02497 4.5776 3.98191C4.7569 3.93885 4.94462 3.94621 5.12 4.00318L9.37 5.41318C9.52804 5.47189 9.66866 5.5696 9.7788 5.69723C9.88895 5.82486 9.96504 5.97826 10 6.14318C10.0405 6.30902 10.0379 6.48248 9.99237 6.64702C9.94686 6.81157 9.85998 6.96172 9.74 7.08318L6.93 9.90318C6.83656 9.99586 6.72575 10.0692 6.60391 10.1189C6.48207 10.1687 6.35161 10.1939 6.22 10.1932ZM6.39 6.53318L6.66 7.34318L7.2 6.80318L6.39 6.53318Z" fill="black"/>
<path d="M5.00002 17.1432C4.84348 17.1422 4.68934 17.1046 4.55002 17.0332L0.550021 15.0332C0.386219 14.9493 0.248754 14.8218 0.152764 14.6647C0.0567734 14.5077 0.00598145 14.3272 0.00598145 14.1432C0.00598145 13.9591 0.0567734 13.7787 0.152764 13.6216C0.248754 13.4646 0.386219 13.3371 0.550021 13.2532L4.55002 11.2532C4.70225 11.1765 4.87156 11.14 5.04188 11.1471C5.21219 11.1542 5.37786 11.2048 5.52314 11.2939C5.66842 11.3831 5.78849 11.5079 5.87196 11.6566C5.95542 11.8052 5.99951 11.9727 6.00002 12.1432V16.1432C6.00036 16.3131 5.95739 16.4804 5.87515 16.6291C5.79291 16.7778 5.67413 16.9031 5.53002 16.9932C5.37088 17.0918 5.18725 17.1438 5.00002 17.1432ZM3.24002 14.1432L4.00002 14.5232V13.7632L3.24002 14.1432Z" fill="black"/>
<path d="M4.81004 24.3332C4.67843 24.3339 4.54797 24.3087 4.42613 24.2589C4.30429 24.2092 4.19348 24.1359 4.10004 24.0432C3.97322 23.9139 3.88391 23.7525 3.84164 23.5764C3.79937 23.4003 3.80573 23.216 3.86004 23.0432L5.27004 18.7932C5.32593 18.6314 5.4224 18.4867 5.55021 18.3729C5.67802 18.2591 5.83291 18.18 6.00004 18.1432C6.16588 18.1027 6.33934 18.1053 6.50388 18.1508C6.66843 18.1963 6.81858 18.2832 6.94004 18.4032L9.77004 21.2332C9.87991 21.3545 9.95834 21.5009 9.99844 21.6595C10.0385 21.8182 10.0391 21.9843 10 22.1432C9.96168 22.3085 9.8819 22.4613 9.76818 22.5873C9.65447 22.7132 9.51057 22.8082 9.35004 22.8632L5.12004 24.2832C5.02077 24.3192 4.91559 24.3361 4.81004 24.3332ZM6.66004 20.9432L6.39004 21.7532L7.20004 21.4832L6.66004 20.9432Z" fill="black"/>
<path d="M14 28.1432C13.8154 28.1426 13.6345 28.0909 13.4774 27.9939C13.3203 27.8968 13.1931 27.7581 13.11 27.5932L11.11 23.5932C11.0333 23.4409 10.9968 23.2716 11.0039 23.1013C11.0111 22.931 11.0616 22.7653 11.1508 22.6201C11.24 22.4748 11.3648 22.3547 11.5134 22.2712C11.6621 22.1878 11.8296 22.1437 12 22.1432H16C16.1705 22.1437 16.338 22.1878 16.4866 22.2712C16.6353 22.3547 16.7601 22.4748 16.8493 22.6201C16.9384 22.7653 16.989 22.931 16.9961 23.1013C17.0033 23.2716 16.9667 23.4409 16.89 23.5932L14.89 27.5932C14.8069 27.7581 14.6798 27.8968 14.5227 27.9939C14.3656 28.0909 14.1847 28.1426 14 28.1432ZM13.62 24.1432L14 24.9032L14.38 24.1432H13.62Z" fill="black"/>
<path d="M23.19 24.3332C23.0845 24.3361 22.9793 24.3192 22.88 24.2832L18.63 22.8732C18.4676 22.8195 18.3216 22.725 18.2061 22.5988C18.0906 22.4726 18.0094 22.3189 17.9702 22.1524C17.9311 21.9858 17.9354 21.812 17.9826 21.6476C18.0298 21.4831 18.1185 21.3336 18.24 21.2132L21.07 18.3832C21.1924 18.2683 21.3418 18.1862 21.5043 18.1442C21.6668 18.1023 21.8373 18.1019 22 18.1432C22.1653 18.1815 22.3181 18.2613 22.4441 18.375C22.5701 18.4887 22.665 18.6326 22.72 18.7932L24.13 23.0432C24.1843 23.216 24.1907 23.4003 24.1484 23.5764C24.1061 23.7525 24.0168 23.9139 23.89 24.0432C23.7037 24.2279 23.4524 24.3321 23.19 24.3332ZM20.8 21.4832L21.61 21.7532L21.34 20.9432L20.8 21.4832Z" fill="black"/>
<path d="M23 17.1432C22.8128 17.1438 22.6291 17.0918 22.47 16.9932C22.3259 16.9031 22.2071 16.7778 22.1249 16.6291C22.0426 16.4804 21.9997 16.3131 22 16.1432V12.1432C22.0005 11.9727 22.0446 11.8052 22.1281 11.6566C22.2115 11.5079 22.3316 11.3831 22.4769 11.2939C22.6222 11.2048 22.7878 11.1542 22.9581 11.1471C23.1285 11.14 23.2978 11.1765 23.45 11.2532L27.45 13.2532C27.6138 13.3371 27.7513 13.4646 27.8473 13.6216C27.9433 13.7787 27.994 13.9591 27.994 14.1432C27.994 14.3272 27.9433 14.5077 27.8473 14.6647C27.7513 14.8218 27.6138 14.9493 27.45 15.0332L23.45 17.0332C23.3107 17.1046 23.1565 17.1422 23 17.1432ZM24 13.7632V14.5232L24.76 14.1432L24 13.7632Z" fill="black"/>
<path d="M21.78 10.1932C21.6484 10.1939 21.5179 10.1687 21.3961 10.1189C21.2743 10.0692 21.1635 9.99586 21.07 9.90318L18.24 7.07318C18.1185 6.95278 18.0298 6.80321 17.9826 6.63878C17.9354 6.47434 17.9311 6.30053 17.9702 6.13398C18.0094 5.96743 18.0906 5.8137 18.2061 5.6875C18.3216 5.5613 18.4676 5.46685 18.63 5.41318L22.88 4.00318C23.0554 3.94621 23.2431 3.93885 23.4224 3.98191C23.6017 4.02497 23.7656 4.11677 23.896 4.24716C24.0264 4.37756 24.1182 4.54146 24.1613 4.72077C24.2043 4.90007 24.197 5.08779 24.14 5.26318L22.73 9.51318C22.6713 9.67121 22.5736 9.81183 22.446 9.92198C22.3183 10.0321 22.1649 10.1082 22 10.1432L21.78 10.1932ZM20.78 6.80318L21.32 7.34318L21.59 6.53318L20.78 6.80318Z" fill="black"/>
<path d="M14 20.1432C12.8133 20.1432 11.6533 19.7913 10.6666 19.132C9.67989 18.4727 8.91085 17.5356 8.45673 16.4393C8.0026 15.3429 7.88378 14.1365 8.11529 12.9726C8.3468 11.8087 8.91825 10.7397 9.75736 9.90053C10.5965 9.06142 11.6656 8.48998 12.8295 8.25846C13.9933 8.02695 15.1997 8.14577 16.2961 8.5999C17.3925 9.05402 18.3295 9.82306 18.9888 10.8098C19.6481 11.7964 20 12.9565 20 14.1432C20 15.7345 19.3679 17.2606 18.2426 18.3858C17.1174 19.511 15.5913 20.1432 14 20.1432ZM14 10.1432C13.2089 10.1432 12.4355 10.3778 11.7777 10.8173C11.1199 11.2568 10.6072 11.8815 10.3045 12.6124C10.0017 13.3433 9.92252 14.1476 10.0769 14.9235C10.2312 15.6995 10.6122 16.4122 11.1716 16.9716C11.731 17.531 12.4437 17.912 13.2196 18.0663C13.9956 18.2207 14.7998 18.1414 15.5307 17.8387C16.2616 17.5359 16.8864 17.0233 17.3259 16.3655C17.7654 15.7077 18 14.9343 18 14.1432C18 13.0823 17.5786 12.0649 16.8284 11.3147C16.0783 10.5646 15.0609 10.1432 14 10.1432Z" fill="black"/>
</svg>
