<svg width="28" height="29" viewBox="0 0 28 29" fill="none" xmlns="http://www.w3.org/2000/svg">
<path d="M27 8.00008H24.858C24.7202 7.47339 24.4762 6.98046 24.1408 6.55159C23.8055 6.12273 23.3859 5.767 22.908 5.50628L25.707 2.70708C25.8025 2.61483 25.8787 2.50449 25.9311 2.38249C25.9835 2.26048 26.0111 2.12926 26.0123 1.99648C26.0134 1.8637 25.9881 1.73202 25.9378 1.60913C25.8875 1.48623 25.8133 1.37458 25.7194 1.28069C25.6255 1.18679 25.5138 1.11254 25.391 1.06226C25.2681 1.01198 25.1364 0.986677 25.0036 0.987831C24.8708 0.988985 24.7396 1.01657 24.6176 1.06898C24.4956 1.12139 24.3852 1.19757 24.293 1.29308L21 4.58598L17.707 1.29308C17.5184 1.11092 17.2658 1.01013 17.0036 1.01241C16.7414 1.01469 16.4906 1.11985 16.3052 1.30526C16.1198 1.49067 16.0146 1.74148 16.0123 2.00368C16.01 2.26588 16.1108 2.51848 16.293 2.70708L19.0922 5.50628C18.6142 5.76698 18.1947 6.1227 17.8593 6.55156C17.5239 6.98043 17.2798 7.47338 17.142 8.00008H1C0.734784 8.00008 0.48043 8.10544 0.292893 8.29297C0.105357 8.48051 0 8.73486 0 9.00008V28.0001C0 28.2653 0.105357 28.5197 0.292893 28.7072C0.48043 28.8947 0.734784 29.0001 1 29.0001H27C27.2652 29.0001 27.5196 28.8947 27.7071 28.7072C27.8946 28.5197 28 28.2653 28 28.0001V9.00008C28 8.73486 27.8946 8.48051 27.7071 8.29297C27.5196 8.10544 27.2652 8.00008 27 8.00008ZM21 7.00008C21.351 7.0002 21.6957 7.09266 21.9996 7.26819C22.3035 7.44372 22.5559 7.69614 22.7314 8.00008H19.2686C19.4441 7.69614 19.6965 7.44372 20.0004 7.26819C20.3043 7.09266 20.649 7.0002 21 7.00008ZM26 27.0001H2V10.0001H26V27.0001Z" fill="black"/>
<path d="M16 12.0001H5C4.73478 12.0001 4.48043 12.1054 4.29289 12.293C4.10536 12.4805 4 12.7349 4 13.0001V24.0001C4 24.2653 4.10536 24.5196 4.29289 24.7072C4.48043 24.8947 4.73478 25.0001 5 25.0001H16C16.2652 25.0001 16.5196 24.8947 16.7071 24.7072C16.8946 24.5196 17 24.2653 17 24.0001V13.0001C17 12.7349 16.8946 12.4805 16.7071 12.293C16.5196 12.1054 16.2652 12.0001 16 12.0001ZM15 23.0001H6V14.0001H15V23.0001Z" fill="black"/>
<path d="M21.5 18.0001C22.8807 18.0001 24 16.8808 24 15.5001C24 14.1194 22.8807 13.0001 21.5 13.0001C20.1193 13.0001 19 14.1194 19 15.5001C19 16.8808 20.1193 18.0001 21.5 18.0001Z" fill="black"/>
<path d="M23 19.0001H20C19.7348 19.0001 19.4804 19.1054 19.2929 19.293C19.1054 19.4805 19 19.7349 19 20.0001C19 20.2653 19.1054 20.5196 19.2929 20.7072C19.4804 20.8947 19.7348 21.0001 20 21.0001H23C23.2652 21.0001 23.5196 20.8947 23.7071 20.7072C23.8946 20.5196 24 20.2653 24 20.0001C24 19.7349 23.8946 19.4805 23.7071 19.293C23.5196 19.1054 23.2652 19.0001 23 19.0001Z" fill="black"/>
<path d="M23 22.0001H20C19.7348 22.0001 19.4804 22.1054 19.2929 22.293C19.1054 22.4805 19 22.7349 19 23.0001C19 23.2653 19.1054 23.5196 19.2929 23.7072C19.4804 23.8947 19.7348 24.0001 20 24.0001H23C23.2652 24.0001 23.5196 23.8947 23.7071 23.7072C23.8946 23.5196 24 23.2653 24 23.0001C24 22.7349 23.8946 22.4805 23.7071 22.293C23.5196 22.1054 23.2652 22.0001 23 22.0001Z" fill="black"/>
</svg>
