<svg width="20" height="24" viewBox="0 0 20 24" fill="none" xmlns="http://www.w3.org/2000/svg">
<path d="M11.3701 0.600012C10.9992 0.251263 10.5092 0.0570984 10.0001 0.0570984C9.491 0.0570984 9.00104 0.251263 8.63012 0.600012C5.86012 3.25001 -0.47988 10.07 0.47012 16.22C0.91012 19.05 2.82012 21.31 6.15012 22.94C7.35088 23.5193 8.66691 23.8202 10.0001 23.8202C11.3333 23.8202 12.6494 23.5193 13.8501 22.94C17.1801 21.31 19.0901 19.05 19.5301 16.22C20.4801 10.07 14.1401 3.25001 11.3701 0.600012ZM17.5501 15.91C17.2201 18.06 15.6801 19.82 12.9801 21.14C12.0456 21.5953 11.0197 21.8319 9.98012 21.8319C8.94058 21.8319 7.91467 21.5953 6.98012 21.14C4.28012 19.82 2.74012 18.06 2.41012 15.91C1.62012 10.55 8.00012 4.00001 10.0001 2.05001C12.0001 4.00001 18.3801 10.55 17.5501 15.91ZM9.25012 5.70001L10.7501 7.00001C9.6612 8.24264 8.68722 9.58146 7.84012 11L6.12012 10C7.03466 8.47722 8.08207 7.03828 9.25012 5.70001ZM5.36012 11.33L7.16012 12.2C6.63389 13.1322 6.37117 14.19 6.40012 15.26L4.40012 15.53C4.31001 14.0669 4.6433 12.6087 5.36012 11.33Z" fill="black"/>
</svg>
